<svg width="421" height="350" viewBox="0 0 421 350" fill="none" xmlns="http://www.w3.org/2000/svg">
    <path d="M176.17 34.9999L263.955 122.203L299.189 122.203L176.17 -4.15829e-05L-7.64949e-06 175L176.17 350L299.189 227.797L263.955 227.797L176.17 315L35.2339 175L176.17 34.9999Z" fill="white"/>
    <path d="M176.17 69.8178L229.112 122.409L176.17 175L229.112 227.591L176.17 280.182L70.2845 175L176.17 69.8178Z" fill="white"/>
    <path d="M246.454 34.9999L334.24 122.203L369.473 122.203L246.454 -4.46551e-05L228.837 17.4999L228.836 17.5007L246.453 35.0007L246.454 34.9999Z" fill="white"/>
    <path d="M369.473 227.797L334.322 227.797L228.879 332.541L246.454 350L369.473 227.797Z" fill="white"/>
    <path d="M241.569 142.62L209.181 174.794L241.569 206.967L241.618 206.918L241.618 207.016L388.612 207.016L388.612 206.967L421 174.794L388.612 142.62L388.563 142.669L241.618 142.669L241.569 142.62Z" fill="white"/>
</svg>
