<svg width="421" height="350" viewBox="0 0 421 350" fill="none" xmlns="http://www.w3.org/2000/svg">
	<path d="M39 155.834L79.9694 155.834C83.7805 138.923 91.0852 124.326 101.883 112.041C112.681 99.7571 127.926 90.7433 147.617 85L161.908 120.417C146.664 125.203 135.072 132.303 127.132 141.715C119.192 151.128 115.222 163.492 115.222 178.807C115.222 191.889 118.16 202.977 124.035 212.071C129.911 221.164 139.042 225.711 151.428 225.711C162.544 225.711 171.357 222.201 177.867 215.182C184.378 208.162 191.762 191.889 200.019 166.364C208.594 138.923 218.837 120.098 230.747 109.888C242.656 99.6774 257.186 94.5722 274.336 94.5722C294.98 94.5722 311.018 101.273 322.451 114.674C333.885 128.075 340.395 141.795 341.983 155.834L382 155.834L382 194.123L341.983 194.123C339.443 210.077 333.647 223.238 324.595 233.608C315.544 243.978 304.507 251.556 291.486 256.342L276.242 220.925C286.405 217.096 294.027 211.672 299.108 204.652C304.19 197.633 306.731 188.061 306.731 175.936C306.731 161.897 303.634 151.208 297.441 143.869C291.248 136.53 283.546 132.861 274.336 132.861C263.856 132.861 255.598 137.647 249.564 147.219C243.53 156.791 237.178 173.383 230.508 196.995C224.156 219.011 214.073 235.682 200.258 247.009C186.442 258.336 170.483 264 152.381 264C129.831 264 112.681 257.299 100.931 243.898C89.1796 230.497 81.875 213.906 79.0167 194.123L39 194.123L39 155.834Z" fill="#CDD6F4" />
</svg>
